<?xml version="1.0" standalone="no"?>
<!DOCTYPE svg PUBLIC "-//W3C//DTD SVG 20010904//EN"
 "http://www.w3.org/TR/2001/REC-SVG-20010904/DTD/svg10.dtd">
<svg version="1.0" xmlns="http://www.w3.org/2000/svg"
 width="512.000000pt" height="512.000000pt" viewBox="0 0 512.000000 512.000000"
 preserveAspectRatio="xMidYMid meet">

<g transform="translate(0.000000,512.000000) scale(0.100000,-0.100000)"
fill="black" >
<path d="M1010 5105 c-352 -55 -665 -270 -848 -580 -57 -97 -99 -201 -130
-325 -23 -92 -26 -125 -26 -265 1 -140 4 -172 27 -257 14 -54 42 -137 62 -185
20 -49 37 -95 37 -103 0 -8 -16 -73 -36 -145 -168 -597 -112 -1235 157 -1789
139 -287 270 -470 502 -701 232 -233 415 -363 699 -501 325 -157 649 -237
1016 -251 610 -23 1190 168 1685 555 105 82 360 344 442 453 386 515 570 1148
513 1764 -31 335 -126 663 -274 952 l-55 107 48 60 c74 94 178 257 217 341 73
159 90 290 54 429 -29 113 -73 190 -160 277 -126 127 -284 188 -456 176 -213
-15 -398 -138 -492 -327 -20 -41 -38 -77 -39 -78 -1 -2 -40 19 -88 47 -296
175 -601 283 -955 337 -83 13 -177 18 -340 18 -286 1 -455 -22 -715 -95 l-113
-32 -85 37 c-202 86 -429 115 -647 81z m340 -170 c159 -24 317 -88 445 -180
129 -92 268 -261 329 -399 76 -171 108 -362 88 -517 -39 -288 -228 -640 -551
-1024 -86 -103 -353 -378 -423 -437 l-47 -39 -157 153 c-471 460 -769 911
-844 1278 -103 498 244 1022 761 1148 139 35 253 40 399 17z m1550 -11 c342
-52 659 -170 948 -353 80 -52 82 -54 82 -92 l0 -39 -180 0 c-251 0 -318 -17
-405 -105 -177 -176 -112 -467 125 -559 31 -12 90 -20 200 -25 138 -6 159 -9
187 -29 39 -28 60 -72 68 -147 13 -121 62 -210 149 -270 87 -59 132 -65 473
-65 l302 0 10 -37 c66 -247 85 -388 85 -643 0 -286 -26 -457 -111 -732 l-36
-118 -284 0 c-155 0 -283 1 -283 3 0 1 14 36 31 77 129 316 116 663 -37 963
-119 235 -320 432 -551 543 -396 188 -873 143 -1223 -116 -277 -206 -444 -502
-481 -851 -18 -171 10 -350 84 -534 l33 -83 -55 -6 c-68 -8 -149 -52 -186
-100 -29 -38 -55 -113 -55 -156 0 -15 -9 -39 -20 -52 -19 -24 -25 -26 -157
-30 -124 -4 -143 -7 -189 -31 -172 -88 -191 -315 -37 -433 48 -36 114 -54 206
-54 70 -1 92 -13 108 -58 8 -23 7 -38 -3 -59 -24 -50 -41 -53 -337 -53 l-274
0 -67 55 c-92 76 -273 263 -346 360 -69 91 -124 171 -124 179 0 3 20 6 44 6
24 0 73 9 109 20 131 40 216 153 235 311 11 83 28 117 76 152 28 20 47 23 186
28 142 5 160 8 217 33 73 33 143 103 176 174 17 37 22 66 22 137 0 101 -18
150 -80 222 l-34 40 65 64 c36 35 109 114 163 174 342 386 542 717 629 1045
32 123 37 347 8 478 -53 246 -167 454 -343 623 -46 44 -83 81 -83 83 0 13 299
67 440 80 91 8 418 -4 520 -20z m1725 11 c82 -22 147 -60 204 -120 85 -89 129
-209 117 -319 -15 -145 -149 -383 -345 -611 l-74 -86 -29 28 c-95 90 -252 310
-322 449 -66 134 -79 182 -74 278 14 262 267 447 523 381z m-620 -716 c41 -80
103 -177 178 -279 122 -166 274 -335 315 -351 33 -13 81 11 125 61 20 24 39
42 41 39 13 -14 126 -261 126 -275 0 -3 -129 -4 -287 -2 -279 3 -289 4 -324
26 -53 32 -69 63 -84 161 -7 48 -23 107 -34 132 -31 65 -96 127 -169 162 -58
27 -74 30 -220 36 -173 7 -194 14 -231 75 -41 68 -34 150 17 207 46 51 84 58
314 59 l208 0 25 -51z m-600 -1007 c313 -83 542 -273 681 -566 83 -175 113
-393 79 -571 -54 -290 -271 -662 -605 -1040 -113 -127 -385 -395 -401 -395
-19 0 -213 185 -332 315 -407 446 -651 866 -687 1182 -32 281 81 593 292 803
146 146 307 233 518 281 116 26 339 21 455 -9z m-3094 -127 c104 -160 267
-365 418 -526 39 -42 71 -80 71 -83 0 -3 -141 -5 -312 -4 l-313 3 -3 70 c-4
94 14 310 37 437 20 111 40 192 46 186 2 -2 27 -39 56 -83z m752 -861 c123
-116 134 -116 247 -16 79 71 85 71 121 1 33 -66 22 -138 -29 -193 -41 -43 -65
-49 -232 -56 -179 -7 -222 -21 -300 -100 -59 -58 -89 -124 -99 -214 -9 -78
-26 -119 -63 -153 -36 -34 -72 -43 -172 -43 l-93 0 -45 98 c-65 140 -112 270
-147 407 -31 123 -61 279 -61 321 l0 24 396 0 396 0 81 -76z m1153 -756 c199
-318 481 -650 796 -939 93 -86 112 -99 142 -99 44 0 104 49 296 240 276 276
500 552 655 808 l38 62 283 0 c221 0 284 -3 284 -12 -1 -22 -94 -191 -160
-290 -140 -209 -359 -441 -550 -584 -328 -245 -694 -397 -1110 -461 -159 -24
-501 -24 -660 0 -269 41 -504 115 -735 231 l-160 81 175 5 c129 4 184 10 211
22 166 74 207 289 78 417 -51 52 -85 64 -198 72 -97 6 -106 8 -128 33 -30 35
-30 80 0 110 21 21 34 23 158 29 148 6 185 16 245 69 43 38 84 118 84 165 0
81 41 112 148 113 l62 0 46 -72z"/>
<path d="M1073 4771 c-337 -54 -599 -285 -699 -618 -36 -119 -39 -315 -6 -438
81 -301 317 -537 617 -616 113 -30 308 -30 419 0 306 82 535 312 618 620 29
108 29 305 -1 416 -97 367 -417 625 -796 640 -55 2 -123 0 -152 -4z m312 -192
c183 -56 336 -181 413 -339 57 -116 76 -194 76 -315 0 -117 -19 -199 -69 -300
-68 -138 -172 -242 -310 -310 -101 -50 -183 -69 -300 -69 -191 0 -348 65 -480
198 -89 90 -138 172 -176 296 -30 96 -32 261 -5 360 51 186 187 352 357 433
52 25 119 50 149 56 30 6 64 13 75 15 44 11 203 -4 270 -25z"/>
<path d="M795 4325 c-49 -48 -24 -128 44 -141 l28 -6 39 -231 c34 -207 40
-234 62 -254 24 -22 31 -23 227 -23 256 0 234 -17 294 225 51 206 52 231 16
263 -25 21 -32 22 -245 22 l-219 0 -6 38 c-20 115 -38 132 -143 132 -64 0 -76
-3 -97 -25z m541 -332 c-3 -10 -10 -40 -16 -68 -20 -93 -9 -86 -123 -83 l-102
3 -12 70 c-6 39 -12 76 -12 83 -1 9 32 12 135 12 124 0 135 -1 130 -17z"/>
<path d="M965 3555 c-32 -31 -32 -75 -1 -111 53 -63 155 -16 142 65 -11 70
-92 96 -141 46z"/>
<path d="M1305 3555 c-32 -31 -32 -75 -1 -111 49 -58 146 -20 146 57 0 70 -94
106 -145 54z"/>
<path d="M4449 4766 c-82 -29 -140 -84 -168 -159 -29 -76 -2 -197 57 -261 63
-67 194 -96 277 -62 85 36 149 118 161 208 24 175 -164 333 -327 274z m132
-182 c37 -34 32 -99 -10 -131 -49 -38 -131 6 -131 70 0 74 85 111 141 61z"/>
<path d="M2990 3056 c-330 -69 -594 -330 -666 -658 -23 -106 -21 -282 6 -383
39 -151 108 -274 219 -388 116 -121 254 -199 418 -238 74 -18 110 -20 223 -17
118 4 147 9 230 37 228 77 398 225 500 436 69 143 85 212 85 375 0 218 -55
371 -195 546 -93 117 -280 237 -435 279 -82 23 -300 29 -385 11z m315 -171
c87 -19 191 -68 271 -128 199 -151 299 -418 250 -667 -47 -239 -216 -435 -448
-517 -107 -38 -282 -44 -393 -14 -202 56 -348 178 -440 366 -52 107 -68 179
-68 300 0 111 21 195 75 305 56 114 177 238 288 293 146 73 311 95 465 62z"/>
<path d="M3099 2701 c-16 -16 -29 -37 -29 -45 0 -11 -9 -16 -30 -16 -72 0
-171 -76 -205 -156 -21 -50 -19 -149 4 -199 35 -77 106 -129 204 -149 27 -6
27 -7 27 -91 l0 -85 -103 0 c-95 0 -105 -2 -125 -23 -22 -23 -29 -68 -16 -102
12 -31 59 -45 152 -45 89 0 90 0 101 -29 13 -31 47 -51 87 -51 27 0 74 40 74
63 0 9 21 18 54 26 98 22 172 95 197 193 33 135 -65 283 -201 306 l-45 8 -3
81 -3 81 106 4 c103 3 108 4 131 31 29 34 31 76 3 111 -20 25 -24 26 -125 26
l-104 0 -14 34 c-26 63 -89 75 -137 27z m-29 -316 l0 -85 -27 11 c-36 13 -52
38 -53 78 0 39 32 81 62 81 16 0 18 -9 18 -85z m230 -275 c27 -27 34 -64 18
-96 -13 -29 -55 -57 -70 -48 -4 3 -8 41 -8 85 0 72 2 79 20 79 11 0 29 -9 40
-20z"/>
</g>
</svg>
